<?xml version="1.0" encoding="UTF-8"?>
<svg id="Layer_1" data-name="Layer 1" xmlns="http://www.w3.org/2000/svg" viewBox="0 0 16 16">
  <defs>
    <style>
      .cls-1 {
        fill: #fff;
      }

      .cls-2 {
        fill: #ccd2e2;
        font-family: BebasNeue-Regular, 'Bebas Neue';
        font-size: 18px;
      }

      .cls-3 {
        fill: #7576b8;
      }
    </style>
  </defs>
  <text class="cls-2" transform="translate(1.18 31.21)"><tspan x="0" y="0">@</tspan></text>
  <path class="cls-3" d="M6.79.1L0,8.03c0,.65.08,1.3.24,1.94L8.74.04C8.09-.02,7.44,0,6.79.1Z"/>
  <path class="cls-1" d="M8.74.04L.25,9.96c.16.63.4,1.25.72,1.83L10.66.46c-.63-.22-1.27-.36-1.92-.42Z"/>
  <path class="cls-1" d="M3.24,1.57L.92,4.29C.3,5.46,0,6.75,0,8.03L6.79.1c-1.26.19-2.48.69-3.55,1.48Z"/>
  <path class="cls-3" d="M10.66.46L.96,11.8c.24.44.51.85.83,1.25L12.03,1.09c-.44-.26-.89-.47-1.36-.63Z"/>
  <path class="cls-3" d="M1.92,2.8c-.4.47-.73.97-1.01,1.49L3.24,1.57c-.47.35-.92.76-1.32,1.22Z"/>
  <path class="cls-3" d="M13.42,2.13L3.04,14.26c.39.31.79.58,1.22.8L14.4,3.21c-.29-.38-.62-.74-.98-1.08Z"/>
  <path class="cls-1" d="M15.84,6.43L7.65,15.99c.85.04,1.71-.06,2.54-.29l5.75-6.71c.1-.85.07-1.71-.1-2.55Z"/>
  <path class="cls-3" d="M15.32,4.8L5.97,15.73c.55.14,1.12.23,1.68.26L15.84,6.43c-.11-.56-.28-1.1-.51-1.62Z"/>
  <path class="cls-1" d="M13.2,1.92c-.37-.32-.77-.59-1.17-.83L1.8,13.05c.3.37.63.71,1,1.03.08.07.16.12.24.19L13.42,2.13c-.08-.07-.14-.14-.22-.21Z"/>
  <path class="cls-3" d="M15.94,8.98l-5.75,6.71c1.46-.42,2.82-1.25,3.89-2.49s1.68-2.72,1.86-4.22Z"/>
  <path class="cls-1" d="M14.4,3.21L4.25,15.07c.55.29,1.13.51,1.72.67L15.32,4.8c-.24-.56-.55-1.09-.92-1.59Z"/>
</svg>