<?xml version="1.0" encoding="UTF-8"?>
<svg id="Layer_1" data-name="Layer 1" xmlns="http://www.w3.org/2000/svg" viewBox="0 0 16 16">
  <defs>
    <style>
      .cls-1 {
        fill: #f6e4e4;
      }

      .cls-2 {
        fill: #84b87b;
      }
    </style>
  </defs>
  <path class="cls-2" d="M8.19,15.75l.48-4.57h-2.13l-.48,4.57h-1.49l.48-4.57h-1.12l.13-1.28h1.12l.49-4.68h-1.14l.13-1.28h1.14l.39-3.68h1.49l-.39,3.68h2.12l.39-3.68h1.49l-.39,3.68h1.17l-.13,1.28h-1.17l-.49,4.68h1.17l-.13,1.28h-1.17l-.48,4.57h-1.49ZM6.67,9.9h2.13l.49-4.68h-2.13l-.49,4.68Z"/>
  <path class="cls-1" d="M11.01.5l-.33,3.13-.06.55h1.17l-.08.78h-1.17l-.05.45-.43,4.18-.06.55h1.17l-.08.78h-1.16l-.05.45-.43,4.12h-.98l.42-4.02.06-.55h-2.63l-.05.45-.43,4.12h-.98l.42-4.02.06-.55h-1.12l.08-.78h1.12l.05-.45.43-4.18.06-.55h-1.14l.08-.78h1.14l.05-.45.34-3.23h.98l-.33,3.13-.06.55h2.63l.05-.45.34-3.23h.98M6.39,10.15h2.63l.05-.45.43-4.18.06-.55h-2.63l-.05.45-.43,4.18-.06.55M11.57,0h-1.99l-.39,3.68h-1.62l.39-3.68h-1.99l-.39,3.68h-1.14l-.18,1.78h1.14l-.43,4.18h-1.12l-.18,1.78h1.12l-.48,4.57h1.99l.48-4.57h1.62l-.48,4.57h1.99l.48-4.57h1.17l.18-1.78h-1.17l.43-4.18h1.17l.18-1.78h-1.17l.39-3.68h0ZM9.01,5.46l-.43,4.18h-1.62l.43-4.18h1.62Z"/>
</svg>